<svg width="261" height="136" viewBox="0 0 261 136" fill="none" xmlns="http://www.w3.org/2000/svg">
<g clip-path="url(#clip0_920_12649)">
<path fill-rule="evenodd" clip-rule="evenodd" d="M35.983 80.7848C34.3621 82.2604 32.0144 82.9988 28.9403 82.9988H19.6096C19.515 82.9996 19.4211 82.9818 19.3334 82.9464C19.2456 82.9109 19.1657 82.8586 19.0982 82.7922C19.0307 82.7259 18.977 82.6469 18.94 82.5598C18.903 82.4727 18.8835 82.3792 18.8827 82.2846V53.8664C18.8827 53.4719 19.2083 53.1521 19.6096 53.1521H28.2726C31.4443 53.1521 33.8546 53.8463 35.503 55.2329C37.1509 56.6201 37.9759 58.6532 37.9759 61.3305C37.9759 62.848 37.6343 64.1536 36.9533 65.2463C36.3809 66.1644 35.6322 66.8746 34.7078 67.3781C34.6653 67.4016 34.6304 67.4367 34.6072 67.4793C34.5839 67.5219 34.5734 67.5703 34.5767 67.6187C34.58 67.6672 34.5971 67.7136 34.6259 67.7527C34.6547 67.7917 34.6941 67.8217 34.7394 67.8392C35.8228 68.2624 36.6789 68.9668 37.3082 69.951C38.0448 71.1062 38.414 72.5307 38.414 74.225C38.414 77.1228 37.6033 79.3087 35.983 80.7848ZM45.8735 46.2576H11.4238C11.2715 46.2576 11.1255 46.3181 11.0178 46.4257C10.9101 46.5334 10.8496 46.6795 10.8496 46.8317V89.3198C10.8496 89.472 10.9101 89.6181 11.0178 89.7258C11.1255 89.8334 11.2715 89.8939 11.4238 89.8939H45.8735C46.0258 89.8939 46.1719 89.8334 46.2795 89.7258C46.3872 89.6181 46.4477 89.472 46.4477 89.3198V46.8317C46.4477 46.6795 46.3872 46.5334 46.2795 46.4257C46.1719 46.3181 46.0258 46.2576 45.8735 46.2576ZM29.3371 70.0222H25.7445C25.3426 70.0222 25.0176 70.3425 25.0176 70.737V77.2824C25.0176 77.6769 25.3432 77.9973 25.7445 77.9973H28.9403C30.0393 77.9973 30.8741 77.6625 31.4437 76.9925C32.0144 76.323 32.2992 75.3728 32.2992 74.1435C32.2992 71.465 31.3116 70.0911 29.3365 70.0227M25.7445 65.6361H28.21C30.6157 65.6361 31.8203 64.4132 31.8203 61.9667C31.8203 60.6139 31.5419 59.6436 30.9855 59.0557C30.4286 58.4683 29.5243 58.1743 28.2726 58.1743H25.7445C25.3426 58.1743 25.0176 58.4941 25.0176 58.8886V64.9219C25.0176 65.3163 25.3432 65.6361 25.7445 65.6361Z" fill="#FAFAFA"/>
<path opacity="0.2" fill-rule="evenodd" clip-rule="evenodd" d="M222.849 46.3541H221.433C221.413 46.3541 221.393 46.358 221.374 46.3657C221.356 46.3735 221.339 46.3848 221.325 46.399C221.31 46.4132 221.299 46.4301 221.292 46.4487C221.284 46.4673 221.28 46.4873 221.28 46.5074V89.8371C221.28 89.9221 221.349 89.9904 221.433 89.9904H222.849C222.89 89.9904 222.929 89.9743 222.958 89.9455C222.986 89.9168 223.003 89.8778 223.003 89.8371V46.5074C223.003 46.4667 222.986 46.4277 222.958 46.399C222.929 46.3702 222.89 46.3541 222.849 46.3541ZM187.251 46.3541H185.835C185.815 46.3541 185.795 46.358 185.776 46.3657C185.758 46.3735 185.741 46.3848 185.726 46.399C185.712 46.4132 185.701 46.4301 185.693 46.4487C185.686 46.4673 185.682 46.4873 185.682 46.5074V89.8371C185.682 89.9221 185.751 89.9904 185.835 89.9904H187.251C187.292 89.9904 187.331 89.9743 187.36 89.9455C187.388 89.9168 187.404 89.8778 187.404 89.8371V46.5074C187.404 46.4667 187.388 46.4277 187.36 46.399C187.331 46.3702 187.292 46.3541 187.251 46.3541ZM151.653 46.3541H150.237C150.216 46.3541 150.197 46.358 150.178 46.3657C150.159 46.3735 150.143 46.3848 150.128 46.399C150.114 46.4132 150.103 46.4301 150.095 46.4487C150.088 46.4673 150.084 46.4873 150.084 46.5074V89.8371C150.084 89.9221 150.153 89.9904 150.237 89.9904H151.653C151.694 89.9904 151.733 89.9743 151.761 89.9455C151.79 89.9168 151.806 89.8778 151.806 89.8371V46.5074C151.806 46.4667 151.79 46.4277 151.761 46.399C151.733 46.3702 151.694 46.3541 151.653 46.3541ZM116.055 46.3541H114.639C114.618 46.3541 114.598 46.358 114.58 46.3657C114.561 46.3735 114.544 46.3848 114.53 46.399C114.516 46.4132 114.505 46.4301 114.497 46.4487C114.49 46.4673 114.486 46.4873 114.486 46.5074V89.8371C114.486 89.9221 114.555 89.9904 114.639 89.9904H116.055C116.096 89.9904 116.135 89.9743 116.163 89.9455C116.192 89.9168 116.208 89.8778 116.208 89.8371V46.5074C116.208 46.4667 116.192 46.4277 116.163 46.399C116.135 46.3702 116.096 46.3541 116.055 46.3541ZM80.4569 46.3541H79.0404C79.0203 46.3541 79.0004 46.358 78.9818 46.3657C78.9633 46.3735 78.9464 46.3848 78.9322 46.399C78.918 46.4132 78.9068 46.4301 78.8992 46.4487C78.8915 46.4673 78.8876 46.4873 78.8877 46.5074V89.8371C78.8877 89.9221 78.9566 89.9904 79.0404 89.9904H80.4569C80.4975 89.9904 80.5365 89.9743 80.5653 89.9455C80.594 89.9168 80.6102 89.8778 80.6102 89.8371V46.5074C80.6102 46.4667 80.594 46.4277 80.5653 46.399C80.5365 46.3702 80.4975 46.3541 80.4569 46.3541Z" fill="#FAFAFA"/>
<path fill-rule="evenodd" clip-rule="evenodd" d="M249.354 68.2331H241.139C241.069 68.2325 241.001 68.2456 240.937 68.2716C240.872 68.2976 240.814 68.336 240.765 68.3846C240.715 68.4332 240.676 68.491 240.649 68.5547C240.622 68.6185 240.608 68.6869 240.607 68.7561V70.9035C240.607 71.1929 240.845 71.4265 241.139 71.4265H245.573C245.866 71.4265 246.104 71.662 246.104 71.9502V78.0019C246.104 78.0744 246.089 78.1461 246.059 78.2123C246.03 78.2786 245.987 78.3379 245.933 78.3866L245.546 78.7368C244.485 79.7094 242.935 80.1952 240.897 80.1952C238.733 80.1952 237.073 79.3988 235.917 77.8049C234.759 76.2116 234.18 73.9224 234.18 70.9385V64.8966C234.222 61.8449 234.745 59.6241 235.751 58.234C236.757 56.8445 238.341 56.1487 240.504 56.1487C242.309 56.1487 243.655 56.6671 244.544 57.7052C245.355 58.6526 245.859 59.937 246.056 61.5578C246.088 61.8231 246.311 62.0287 246.582 62.0287H249.311C249.621 62.0287 249.872 61.7657 249.844 61.462C249.6 58.8208 248.721 56.7682 247.21 55.3041C245.591 53.7377 243.348 52.9546 240.483 52.9546C237.122 52.9546 234.597 53.9887 232.91 56.0568C231.222 58.1255 230.378 61.2346 230.378 65.3852V71.2038C230.419 75.0828 231.366 78.0834 233.22 80.2066C235.072 82.3288 237.625 83.3898 240.876 83.3898C244.54 83.3898 247.323 82.2989 249.224 80.1142L249.77 79.4442C249.845 79.3515 249.885 79.236 249.885 79.1169V68.7561C249.884 68.6164 249.827 68.4829 249.728 68.385C249.628 68.287 249.494 68.2326 249.354 68.2336V68.2331ZM213.823 53.5333H211.144C211.004 53.5333 210.87 53.5889 210.771 53.6877C210.672 53.7865 210.616 53.9206 210.616 54.0604V74.4788C210.616 75.0311 209.875 75.212 209.62 74.7217L198.759 53.8181C198.714 53.7324 198.647 53.6606 198.565 53.6104C198.482 53.5603 198.387 53.5339 198.29 53.5339H195.363C195.294 53.5338 195.226 53.5474 195.162 53.5739C195.098 53.6003 195.039 53.6391 194.99 53.6881C194.941 53.737 194.902 53.7952 194.876 53.8592C194.849 53.9231 194.836 53.9917 194.836 54.061V82.8581C194.836 83.1492 195.072 83.3852 195.364 83.3852H198.084C198.153 83.3853 198.222 83.3717 198.286 83.3453C198.35 83.3188 198.408 83.28 198.457 83.2311C198.506 83.1821 198.545 83.124 198.572 83.06C198.598 82.996 198.612 82.9274 198.612 82.8581V62.5397C198.612 61.9885 199.353 61.807 199.608 62.2968L210.427 83.1004C210.472 83.1861 210.539 83.2579 210.622 83.308C210.704 83.3581 210.799 83.3846 210.896 83.3846H213.824C213.964 83.3846 214.098 83.3291 214.197 83.2303C214.295 83.1314 214.351 82.9973 214.351 82.8576V54.0604C214.351 53.9912 214.337 53.9226 214.311 53.8586C214.284 53.7946 214.245 53.7365 214.196 53.6875C214.147 53.6386 214.089 53.5998 214.025 53.5733C213.961 53.5468 213.893 53.5333 213.823 53.5333ZM170.268 53.5333H167.426C167.119 53.5333 166.871 53.7693 166.871 54.0604V82.8576C166.871 83.1487 167.119 83.3846 167.426 83.3846H170.268C170.575 83.3846 170.823 83.1492 170.823 82.8576V54.0604C170.823 53.7693 170.575 53.5333 170.268 53.5333ZM145.503 53.5333H141.577C141.465 53.5334 141.356 53.569 141.266 53.6351C141.176 53.7011 141.109 53.7942 141.075 53.9008L133.904 76.3196C133.747 76.8088 133.056 76.8088 132.899 76.3196L125.729 53.9002C125.695 53.7937 125.628 53.7008 125.538 53.6349C125.447 53.5689 125.338 53.5334 125.227 53.5333H121.3C121.231 53.5333 121.163 53.5468 121.099 53.5733C121.035 53.5998 120.976 53.6386 120.927 53.6875C120.878 53.7365 120.839 53.7946 120.813 53.8586C120.786 53.9226 120.773 53.9912 120.773 54.0604V82.8576C120.773 83.1487 121.009 83.3846 121.301 83.3846H123.997C124.067 83.3848 124.135 83.3713 124.199 83.3448C124.263 83.3184 124.322 83.2796 124.371 83.2307C124.42 83.1817 124.459 83.1236 124.485 83.0595C124.512 82.9955 124.525 82.9269 124.525 82.8576V71.7607L124.243 62.4099C124.232 62.0344 124.76 61.9397 124.88 62.2962L131.826 83.0252C131.861 83.13 131.928 83.2212 132.018 83.2858C132.107 83.3505 132.215 83.3852 132.326 83.3852H134.438C134.549 83.3852 134.656 83.3505 134.746 83.286C134.836 83.2215 134.903 83.1305 134.938 83.0258L141.926 62.2089C142.045 61.853 142.573 61.9466 142.562 62.3226L142.279 71.7607V82.8581C142.279 83.1492 142.515 83.3852 142.807 83.3852H145.504C145.573 83.3852 145.641 83.3716 145.705 83.3451C145.769 83.3186 145.827 83.2798 145.876 83.2308C145.925 83.1819 145.964 83.1238 145.991 83.0598C146.017 82.9959 146.031 82.9273 146.031 82.8581V54.0604C146.031 53.9206 145.975 53.7866 145.876 53.6877C145.778 53.5889 145.643 53.5333 145.504 53.5333H145.503ZM101.421 72.3544H94.6581C94.5758 72.3547 94.4946 72.3358 94.4209 72.2992C94.3473 72.2625 94.2832 72.2092 94.2338 72.1433C94.1844 72.0775 94.1511 72.001 94.1366 71.92C94.122 71.8391 94.1266 71.7558 94.15 71.6769L97.5226 60.4669C97.6736 59.9657 98.3873 59.9651 98.5389 60.4658L101.929 71.6752C101.952 71.7541 101.957 71.8375 101.943 71.9187C101.929 71.9999 101.895 72.0766 101.846 72.1426C101.797 72.2086 101.733 72.2622 101.659 72.299C101.585 72.3357 101.504 72.3547 101.421 72.3544ZM99.7779 53.8985C99.743 53.7922 99.6753 53.6996 99.5845 53.634C99.4938 53.5684 99.3846 53.5332 99.2727 53.5333H96.8072C96.6952 53.5332 96.5861 53.5685 96.4954 53.6342C96.4048 53.6999 96.3372 53.7926 96.3025 53.8991L86.9701 82.6956C86.9447 82.775 86.9385 82.8592 86.9519 82.9415C86.9653 83.0237 86.998 83.1016 87.0473 83.1688C87.0966 83.236 87.161 83.2906 87.2354 83.3281C87.3098 83.3656 87.392 83.385 87.4754 83.3846H90.2285C90.4639 83.3846 90.6706 83.2313 90.7372 83.0074L92.8432 75.951C92.8759 75.8416 92.943 75.7458 93.0346 75.6777C93.1261 75.6096 93.2372 75.573 93.3513 75.5732H102.71C102.943 75.5732 103.15 75.7253 103.218 75.9481L105.362 83.0103C105.395 83.1189 105.462 83.2139 105.554 83.2814C105.645 83.3488 105.756 83.385 105.87 83.3846H108.625C108.708 83.385 108.79 83.3656 108.865 83.3281C108.939 83.2906 109.003 83.236 109.053 83.1688C109.102 83.1016 109.135 83.0237 109.148 82.9415C109.161 82.8592 109.155 82.775 109.13 82.6956L99.7779 53.8985ZM71.3638 68.2331H63.1481C63.0789 68.2325 63.0102 68.2456 62.9461 68.2716C62.8819 68.2976 62.8235 68.336 62.7742 68.3846C62.7249 68.4332 62.6856 68.491 62.6586 68.5547C62.6317 68.6185 62.6175 68.6869 62.617 68.7561V70.9035C62.617 71.1929 62.8547 71.4265 63.1481 71.4265H67.5823C67.8757 71.4265 68.1134 71.662 68.1134 71.9502V78.0019C68.1133 78.0744 68.098 78.146 68.0685 78.2123C68.039 78.2785 67.9961 78.3379 67.9423 78.3866L67.5554 78.7368C66.4949 79.7094 64.9446 80.1952 62.9064 80.1952C60.7429 80.1952 59.083 79.3988 57.9261 77.8049C56.7686 76.2116 56.1898 73.9224 56.1898 70.9385V64.8966C56.2317 61.8449 56.7548 59.6241 57.7607 58.234C58.7661 56.8445 60.3502 56.1487 62.5131 56.1487C64.3182 56.1487 65.6652 56.6671 66.5534 57.7052C67.3647 58.6526 67.8688 59.937 68.0658 61.5578C68.0979 61.8231 68.3201 62.0287 68.5917 62.0287H71.3207C71.6308 62.0287 71.8811 61.7657 71.853 61.462C71.6095 58.8208 70.731 56.7682 69.2193 55.3041C67.6001 53.7377 65.358 52.9546 62.493 52.9546C59.1312 52.9546 56.6066 53.9887 54.9198 56.0568C53.2317 58.1255 52.3877 61.2346 52.3877 65.3852V71.2038C52.429 75.0828 53.3758 78.0834 55.2298 80.2066C57.0815 82.3288 59.6336 83.3898 62.8851 83.3898C66.55 83.3898 69.333 82.2989 71.234 80.1142L71.7795 79.4436C71.8543 79.3514 71.895 79.2362 71.8949 79.1175V68.7561C71.8937 68.6164 71.837 68.4829 71.7375 68.385C71.6379 68.287 71.5035 68.2326 71.3638 68.2336V68.2331Z" fill="#FAFAFA"/>
</g>
<defs>
<clipPath id="clip0_920_12649">
<rect width="240" height="44.2105" fill="white" transform="translate(10.4258 45.8947)"/>
</clipPath>
</defs>
</svg>
